<svg id="Layer_1" data-name="Layer 1" xmlns="http://www.w3.org/2000/svg" viewBox="0 0 599.22 244.58"><defs><style>.cls-1{fill:#de271f}.cls-2{fill:#51585b}</style></defs><path class="cls-1" d="M166.32 83c0 6.58-7.82 8.73-23.61 8.58 1.4-6.43 6.84-14.43 16.21-14.43 4.61 0 7.4 2.43 7.4 5.85m18.86.14c0-13-9.91-21-23.75-21-1 0-2 0-3 .12a37.94 37.94 0 00-29.86 15.84c-6.13 8.52-9.74 20.51-9.74 31.05 0 17.32 12.06 27.57 30.76 27.57 12.66 0 21.69-2.68 27.55-5.62l-2-12.91a48.4 48.4 0 01-20.9 4.39c-11.45 0-13.82-6.64-13.42-16 27.48.7 44.35-5.74 44.35-23.46M386.4 82.87c0 6.58-7.83 8.73-23.63 8.59C364.17 85 369.62 77 379 77c4.61 0 7.42 2.44 7.42 5.86m18.87.14c0-13-9.93-21-23.77-21-1 0-2 0-3 .12A38 38 0 00348.62 78c-6.14 8.53-9.75 20.52-9.75 31.07 0 17.33 12.07 27.59 30.78 27.59 12.67 0 21.71-2.68 27.57-5.62l-2-12.92a48.36 48.36 0 01-20.9 4.39c-11.46 0-13.84-6.64-13.43-16 27.49.7 44.38-5.74 44.38-23.47"/><path class="cls-2" d="M289.54 175.38c0 6-7.1 7.91-21.43 7.78 1.27-5.84 6.21-13.1 14.71-13.1 4.19 0 6.72 2.21 6.72 5.32m17.14.12c0-11.81-9-19.07-21.58-19.07-.93 0-1.84 0-2.74.11a34.44 34.44 0 00-27.09 14.37 50.76 50.76 0 00-8.85 28.19c0 15.73 11 25.05 27.94 25.05 11.49 0 19.69-2.44 25-5.1l-1.82-11.73a43.9 43.9 0 01-19 4c-10.39 0-12.55-6-12.18-14.51 25 .64 40.28-5.2 40.28-21.29"/><path class="cls-1" d="M599.22 115.77C599.22 36.43 461 0 326.34 0 246.81 0 168.6 11.85 116.86 28.6c34.19-7.33 98.39-12.6 138-12.6C423.32 16 514 70.33 514 134c0 42.22-38.43 85.38-107.32 110.54 125.61-25.6 192.54-74.32 192.54-128.77z"/><path class="cls-2" d="M139.86 169.92c-4.49-1.72-9.34-1.84-12.5-.5l-11 53.5H95.54l12.86-61.75c6.8-2.89 18.12-4.86 29.89-4.86a68.37 68.37 0 019.84.48zM193.32 209.57c-6 9-17.12 14.57-29.5 14.57-15.53 0-25.37-10-25.37-24.14 0-9.58 3.49-21.5 8.85-29.24 6.17-9.09 17.38-14.45 29.38-14.45 15.54 0 25.52 9.84 25.52 24 0 9.61-3.64 21.51-8.88 29.26zm-18.19-41.49c-5.12 0-8.76 3.89-11.31 9.71a71.72 71.72 0 00-5.2 24c0 5.57 1.69 9.44 7 9.44 5.19 0 8.59-3.62 11.12-9.44 2.71-6.22 5.38-17.46 5.38-24.16.04-5.54-1.8-9.55-6.99-9.55zM246.67 169.8h-10.06l-7 34a11.72 11.72 0 00-.37 2.8c0 2.78 1.59 4.62 4.84 4.62a17.34 17.34 0 006.36-1.57l-2.32 11.79a36 36 0 01-12.84 2.49c-11.38 0-17.05-6.3-17.05-14.43a24.59 24.59 0 01.6-5l7-34.67h-7l2.43-12.28h7.26l2.82-13.94 21.85-4.84-4 18.78h10.07zM328.08 222.92h-20.77l13.4-64.44h20.65zM332.84 151.71c-5.41 0-9.1-3.54-9.1-8 0-6 6.21-11.45 13.05-11.45 5.41 0 9.11 3.42 9.11 7.91 0 6.16-6.34 11.54-13.06 11.54zM406.66 178l-9.35 44.91h-20.62l9.31-45.73a10.09 10.09 0 00.38-2.66c0-3.65-1.38-6.44-7.32-6.44a22.14 22.14 0 00-7.34 1.34l-11.14 53.5h-20.77l12.84-61.75c7.06-2.89 17.92-4.86 29.07-4.86 17.59 0 25.57 6.69 25.57 16.52a25 25 0 01-.63 5.17z"/><path class="cls-1" d="M121.55 77.06c-4.91-1.85-10.22-2-13.68-.53L96.25 133s-5.64-6.34-20.65-7.49c-1.55-.12 11.85-58 11.85-58 7.44-3.2 19.48-5.33 32.38-5.33a80.39 80.39 0 018.51.4zM297.1 85.44l-10.23 49.67h-21.59l10.51-50.34a17.13 17.13 0 00.27-2.65c0-4.12-1.69-7.05-7.81-7.05a13.77 13.77 0 00-9.1 3.71l-11.72 56.33H225l10.5-50.46a17.24 17.24 0 00.26-2.53c0-4.39-2.34-7.05-8.58-7.05a20.79 20.79 0 00-7.92 1.46l-12.1 58.58h-22.4l14.09-67.61c8.5-3.46 19.06-5.33 31-5.33 9.43 0 18 3.19 21.32 7.18 4.8-3.73 13-7.18 24.81-7.18 14.47 0 21.65 7.45 21.65 18.09a22.84 22.84 0 01-.53 5.18zM322.52 135.11h-22.44l14.76-70.75h22.31zM328.06 56.85c-5.8 0-9.77-3.81-9.77-8.62 0-6.52 6.66-12.3 14-12.3 5.79 0 9.75 3.67 9.75 8.48.02 6.65-6.78 12.44-13.98 12.44zM453.93 77.06c-4.91-1.85-10.22-2-13.67-.53l-12.1 58.58h-22.42l14.09-67.61c7.44-3.2 19.49-5.33 32.39-5.33a80.39 80.39 0 018.51.4z"/><path class="cls-2" d="M423.94 162.66c4.53 0 7.95 3.26 7 8.33a10.56 10.56 0 01-10.2 8.39c-4.54 0-8-3.3-7-8.39a10.51 10.51 0 0110.2-8.33zm-2.88 14.92a8.07 8.07 0 007.57-6.59c.73-3.8-1.58-6.54-5-6.54A8 8 0 00416 171c-.71 3.81 1.54 6.58 5.06 6.58zm-1.14-11.29h3.51c2.37 0 3.52.75 3.12 2.77a2.91 2.91 0 01-2.91 2.51l1.69 4.09h-1.95l-1.49-4h-1.17l-.78 4h-1.84zm1.08 3.92h1.65c1.05 0 1.85-.16 2.07-1.29s-.84-1.17-1.68-1.17h-1.57z"/><path class="cls-1" d="M0 135.11h22.8l7.05-34.39a67.62 67.62 0 007.61.4c15.68 0 26.45-4.91 33.23-12.9a37.48 37.48 0 008.51-23.11c0-7.34-2.89-13.67-9.27-17.77A25.85 25.85 0 0061 43.18c-4-1.27-36.95-.3-42.31-.3zm54.73-55c-3.2 5.59-8.36 8.39-16.61 8.39a35.48 35.48 0 01-5.61-.29l6.66-32.55A29.53 29.53 0 0147 54.6c8.26 0 11.71 3.72 11.71 10.38a33.34 33.34 0 01-3.98 15.14z"/><path class="cls-2" d="M23.17 222.78h22.57l7-34a66.38 66.38 0 007.54.4c15.52 0 26.18-4.87 32.9-12.78a37.1 37.1 0 008.42-22.88c0-7.26-2.86-13.53-9.18-17.59a25.67 25.67 0 00-8.84-4.11c-3.93-1.26-36.59-.3-41.88-.3zm54.18-54.43c-3.16 5.53-8.28 8.3-16.44 8.3a34.72 34.72 0 01-5.55-.29l6.58-32.22a29.48 29.48 0 017.78-1.06c8.18 0 11.6 3.69 11.6 10.28a33.11 33.11 0 01-3.97 14.99z"/></svg>